<mxfile host="65bd71144e">
    <diagram id="qlhxbUP3Rtg_SCQhHcul" name="Token">
        <mxGraphModel dx="789" dy="652" grid="1" gridSize="10" guides="1" tooltips="1" connect="1" arrows="1" fold="1" page="1" pageScale="1" pageWidth="827" pageHeight="1169" math="0" shadow="0">
            <root>
                <mxCell id="0"/>
                <mxCell id="1" parent="0"/>
                <mxCell id="2" value="" style="rounded=1;whiteSpace=wrap;html=1;verticalAlign=top;" vertex="1" parent="1">
                    <mxGeometry x="120" y="120" width="480" height="120" as="geometry"/>
                </mxCell>
                <mxCell id="4" value="合&lt;br&gt;约&lt;br&gt;代&lt;br&gt;码" style="rounded=1;whiteSpace=wrap;html=1;" vertex="1" parent="1">
                    <mxGeometry x="160" y="130" width="70" height="100" as="geometry"/>
                </mxCell>
                <mxCell id="5" value="合&lt;br&gt;约&lt;br&gt;账&lt;br&gt;户" style="text;html=1;align=center;verticalAlign=middle;resizable=0;points=[];autosize=1;strokeColor=none;fillColor=none;" vertex="1" parent="1">
                    <mxGeometry x="120" y="145" width="40" height="70" as="geometry"/>
                </mxCell>
                <mxCell id="6" value="" style="rounded=1;whiteSpace=wrap;html=1;" vertex="1" parent="1">
                    <mxGeometry x="240" y="130" width="340" height="100" as="geometry"/>
                </mxCell>
                <mxCell id="7" value="持&lt;br&gt;久&lt;br&gt;存&lt;br&gt;储" style="text;html=1;align=center;verticalAlign=middle;resizable=0;points=[];autosize=1;strokeColor=none;fillColor=none;" vertex="1" parent="1">
                    <mxGeometry x="240" y="145" width="40" height="70" as="geometry"/>
                </mxCell>
                <mxCell id="8" value="" style="shape=table;startSize=0;container=1;collapsible=0;childLayout=tableLayout;" vertex="1" parent="1">
                    <mxGeometry x="360" y="140" width="200" height="80" as="geometry"/>
                </mxCell>
                <mxCell id="9" value="" style="shape=tableRow;horizontal=0;startSize=0;swimlaneHead=0;swimlaneBody=0;strokeColor=inherit;top=0;left=0;bottom=0;right=0;collapsible=0;dropTarget=0;fillColor=none;points=[[0,0.5],[1,0.5]];portConstraint=eastwest;" vertex="1" parent="8">
                    <mxGeometry width="200" height="20" as="geometry"/>
                </mxCell>
                <mxCell id="10" value="地址" style="shape=partialRectangle;html=1;whiteSpace=wrap;connectable=0;strokeColor=inherit;overflow=hidden;fillColor=none;top=0;left=0;bottom=0;right=0;pointerEvents=1;" vertex="1" parent="9">
                    <mxGeometry width="100" height="20" as="geometry">
                        <mxRectangle width="100" height="20" as="alternateBounds"/>
                    </mxGeometry>
                </mxCell>
                <mxCell id="11" value="余额" style="shape=partialRectangle;html=1;whiteSpace=wrap;connectable=0;strokeColor=inherit;overflow=hidden;fillColor=none;top=0;left=0;bottom=0;right=0;pointerEvents=1;" vertex="1" parent="9">
                    <mxGeometry x="100" width="100" height="20" as="geometry">
                        <mxRectangle width="100" height="20" as="alternateBounds"/>
                    </mxGeometry>
                </mxCell>
                <mxCell id="12" value="" style="shape=tableRow;horizontal=0;startSize=0;swimlaneHead=0;swimlaneBody=0;strokeColor=inherit;top=0;left=0;bottom=0;right=0;collapsible=0;dropTarget=0;fillColor=none;points=[[0,0.5],[1,0.5]];portConstraint=eastwest;" vertex="1" parent="8">
                    <mxGeometry y="20" width="200" height="20" as="geometry"/>
                </mxCell>
                <mxCell id="13" value="0x12####...." style="shape=partialRectangle;html=1;whiteSpace=wrap;connectable=0;strokeColor=inherit;overflow=hidden;fillColor=none;top=0;left=0;bottom=0;right=0;pointerEvents=1;" vertex="1" parent="12">
                    <mxGeometry width="100" height="20" as="geometry">
                        <mxRectangle width="100" height="20" as="alternateBounds"/>
                    </mxGeometry>
                </mxCell>
                <mxCell id="14" value="10000" style="shape=partialRectangle;html=1;whiteSpace=wrap;connectable=0;strokeColor=inherit;overflow=hidden;fillColor=none;top=0;left=0;bottom=0;right=0;pointerEvents=1;" vertex="1" parent="12">
                    <mxGeometry x="100" width="100" height="20" as="geometry">
                        <mxRectangle width="100" height="20" as="alternateBounds"/>
                    </mxGeometry>
                </mxCell>
                <mxCell id="15" value="" style="shape=tableRow;horizontal=0;startSize=0;swimlaneHead=0;swimlaneBody=0;strokeColor=inherit;top=0;left=0;bottom=0;right=0;collapsible=0;dropTarget=0;fillColor=none;points=[[0,0.5],[1,0.5]];portConstraint=eastwest;" vertex="1" parent="8">
                    <mxGeometry y="40" width="200" height="20" as="geometry"/>
                </mxCell>
                <mxCell id="16" value="0x34####...." style="shape=partialRectangle;html=1;whiteSpace=wrap;connectable=0;strokeColor=inherit;overflow=hidden;fillColor=none;top=0;left=0;bottom=0;right=0;pointerEvents=1;" vertex="1" parent="15">
                    <mxGeometry width="100" height="20" as="geometry">
                        <mxRectangle width="100" height="20" as="alternateBounds"/>
                    </mxGeometry>
                </mxCell>
                <mxCell id="17" value="20000" style="shape=partialRectangle;html=1;whiteSpace=wrap;connectable=0;strokeColor=inherit;overflow=hidden;fillColor=none;top=0;left=0;bottom=0;right=0;pointerEvents=1;" vertex="1" parent="15">
                    <mxGeometry x="100" width="100" height="20" as="geometry">
                        <mxRectangle width="100" height="20" as="alternateBounds"/>
                    </mxGeometry>
                </mxCell>
                <mxCell id="18" value="" style="shape=tableRow;horizontal=0;startSize=0;swimlaneHead=0;swimlaneBody=0;strokeColor=inherit;top=0;left=0;bottom=0;right=0;collapsible=0;dropTarget=0;fillColor=none;points=[[0,0.5],[1,0.5]];portConstraint=eastwest;" vertex="1" parent="8">
                    <mxGeometry y="60" width="200" height="20" as="geometry"/>
                </mxCell>
                <mxCell id="19" value="0x56####...." style="shape=partialRectangle;html=1;whiteSpace=wrap;connectable=0;strokeColor=inherit;overflow=hidden;fillColor=none;top=0;left=0;bottom=0;right=0;pointerEvents=1;" vertex="1" parent="18">
                    <mxGeometry width="100" height="20" as="geometry">
                        <mxRectangle width="100" height="20" as="alternateBounds"/>
                    </mxGeometry>
                </mxCell>
                <mxCell id="20" value="50000" style="shape=partialRectangle;html=1;whiteSpace=wrap;connectable=0;strokeColor=inherit;overflow=hidden;fillColor=none;top=0;left=0;bottom=0;right=0;pointerEvents=1;" vertex="1" parent="18">
                    <mxGeometry x="100" width="100" height="20" as="geometry">
                        <mxRectangle width="100" height="20" as="alternateBounds"/>
                    </mxGeometry>
                </mxCell>
                <mxCell id="21" value="" style="rounded=1;whiteSpace=wrap;html=1;verticalAlign=top;" vertex="1" parent="1">
                    <mxGeometry x="120" y="320" width="480" height="120" as="geometry"/>
                </mxCell>
                <mxCell id="22" value="合&lt;br&gt;约&lt;br&gt;代&lt;br&gt;码" style="rounded=1;whiteSpace=wrap;html=1;" vertex="1" parent="1">
                    <mxGeometry x="160" y="330" width="70" height="100" as="geometry"/>
                </mxCell>
                <mxCell id="23" value="合&lt;br&gt;约&lt;br&gt;账&lt;br&gt;户" style="text;html=1;align=center;verticalAlign=middle;resizable=0;points=[];autosize=1;strokeColor=none;fillColor=none;" vertex="1" parent="1">
                    <mxGeometry x="120" y="345" width="40" height="70" as="geometry"/>
                </mxCell>
                <mxCell id="24" value="" style="rounded=1;whiteSpace=wrap;html=1;" vertex="1" parent="1">
                    <mxGeometry x="240" y="330" width="340" height="100" as="geometry"/>
                </mxCell>
                <mxCell id="25" value="持&lt;br&gt;久&lt;br&gt;存&lt;br&gt;储" style="text;html=1;align=center;verticalAlign=middle;resizable=0;points=[];autosize=1;strokeColor=none;fillColor=none;" vertex="1" parent="1">
                    <mxGeometry x="240" y="345" width="40" height="70" as="geometry"/>
                </mxCell>
                <mxCell id="26" value="" style="shape=table;startSize=0;container=1;collapsible=0;childLayout=tableLayout;" vertex="1" parent="1">
                    <mxGeometry x="340" y="340" width="220" height="80" as="geometry"/>
                </mxCell>
                <mxCell id="27" value="" style="shape=tableRow;horizontal=0;startSize=0;swimlaneHead=0;swimlaneBody=0;strokeColor=inherit;top=0;left=0;bottom=0;right=0;collapsible=0;dropTarget=0;fillColor=none;points=[[0,0.5],[1,0.5]];portConstraint=eastwest;" vertex="1" parent="26">
                    <mxGeometry width="220" height="20" as="geometry"/>
                </mxCell>
                <mxCell id="28" value="ID" style="shape=partialRectangle;html=1;whiteSpace=wrap;connectable=0;strokeColor=inherit;overflow=hidden;fillColor=none;top=0;left=0;bottom=0;right=0;pointerEvents=1;" vertex="1" parent="27">
                    <mxGeometry width="29" height="20" as="geometry">
                        <mxRectangle width="29" height="20" as="alternateBounds"/>
                    </mxGeometry>
                </mxCell>
                <mxCell id="29" value="地址" style="shape=partialRectangle;html=1;whiteSpace=wrap;connectable=0;strokeColor=inherit;overflow=hidden;fillColor=none;top=0;left=0;bottom=0;right=0;pointerEvents=1;" vertex="1" parent="27">
                    <mxGeometry x="29" width="91" height="20" as="geometry">
                        <mxRectangle width="91" height="20" as="alternateBounds"/>
                    </mxGeometry>
                </mxCell>
                <mxCell id="39" value="数据" style="shape=partialRectangle;html=1;whiteSpace=wrap;connectable=0;strokeColor=inherit;overflow=hidden;fillColor=none;top=0;left=0;bottom=0;right=0;pointerEvents=1;" vertex="1" parent="27">
                    <mxGeometry x="120" width="100" height="20" as="geometry">
                        <mxRectangle width="100" height="20" as="alternateBounds"/>
                    </mxGeometry>
                </mxCell>
                <mxCell id="30" value="" style="shape=tableRow;horizontal=0;startSize=0;swimlaneHead=0;swimlaneBody=0;strokeColor=inherit;top=0;left=0;bottom=0;right=0;collapsible=0;dropTarget=0;fillColor=none;points=[[0,0.5],[1,0.5]];portConstraint=eastwest;" vertex="1" parent="26">
                    <mxGeometry y="20" width="220" height="20" as="geometry"/>
                </mxCell>
                <mxCell id="31" value="1" style="shape=partialRectangle;html=1;whiteSpace=wrap;connectable=0;strokeColor=inherit;overflow=hidden;fillColor=none;top=0;left=0;bottom=0;right=0;pointerEvents=1;" vertex="1" parent="30">
                    <mxGeometry width="29" height="20" as="geometry">
                        <mxRectangle width="29" height="20" as="alternateBounds"/>
                    </mxGeometry>
                </mxCell>
                <mxCell id="32" value="0x12####..." style="shape=partialRectangle;html=1;whiteSpace=wrap;connectable=0;strokeColor=inherit;overflow=hidden;fillColor=none;top=0;left=0;bottom=0;right=0;pointerEvents=1;" vertex="1" parent="30">
                    <mxGeometry x="29" width="91" height="20" as="geometry">
                        <mxRectangle width="91" height="20" as="alternateBounds"/>
                    </mxGeometry>
                </mxCell>
                <mxCell id="40" value="..." style="shape=partialRectangle;html=1;whiteSpace=wrap;connectable=0;strokeColor=inherit;overflow=hidden;fillColor=none;top=0;left=0;bottom=0;right=0;pointerEvents=1;" vertex="1" parent="30">
                    <mxGeometry x="120" width="100" height="20" as="geometry">
                        <mxRectangle width="100" height="20" as="alternateBounds"/>
                    </mxGeometry>
                </mxCell>
                <mxCell id="33" value="" style="shape=tableRow;horizontal=0;startSize=0;swimlaneHead=0;swimlaneBody=0;strokeColor=inherit;top=0;left=0;bottom=0;right=0;collapsible=0;dropTarget=0;fillColor=none;points=[[0,0.5],[1,0.5]];portConstraint=eastwest;" vertex="1" parent="26">
                    <mxGeometry y="40" width="220" height="20" as="geometry"/>
                </mxCell>
                <mxCell id="34" value="2" style="shape=partialRectangle;html=1;whiteSpace=wrap;connectable=0;strokeColor=inherit;overflow=hidden;fillColor=none;top=0;left=0;bottom=0;right=0;pointerEvents=1;" vertex="1" parent="33">
                    <mxGeometry width="29" height="20" as="geometry">
                        <mxRectangle width="29" height="20" as="alternateBounds"/>
                    </mxGeometry>
                </mxCell>
                <mxCell id="35" value="0x34####..." style="shape=partialRectangle;html=1;whiteSpace=wrap;connectable=0;strokeColor=inherit;overflow=hidden;fillColor=none;top=0;left=0;bottom=0;right=0;pointerEvents=1;" vertex="1" parent="33">
                    <mxGeometry x="29" width="91" height="20" as="geometry">
                        <mxRectangle width="91" height="20" as="alternateBounds"/>
                    </mxGeometry>
                </mxCell>
                <mxCell id="41" value="..." style="shape=partialRectangle;html=1;whiteSpace=wrap;connectable=0;strokeColor=inherit;overflow=hidden;fillColor=none;top=0;left=0;bottom=0;right=0;pointerEvents=1;" vertex="1" parent="33">
                    <mxGeometry x="120" width="100" height="20" as="geometry">
                        <mxRectangle width="100" height="20" as="alternateBounds"/>
                    </mxGeometry>
                </mxCell>
                <mxCell id="36" value="" style="shape=tableRow;horizontal=0;startSize=0;swimlaneHead=0;swimlaneBody=0;strokeColor=inherit;top=0;left=0;bottom=0;right=0;collapsible=0;dropTarget=0;fillColor=none;points=[[0,0.5],[1,0.5]];portConstraint=eastwest;" vertex="1" parent="26">
                    <mxGeometry y="60" width="220" height="20" as="geometry"/>
                </mxCell>
                <mxCell id="37" value="3" style="shape=partialRectangle;html=1;whiteSpace=wrap;connectable=0;strokeColor=inherit;overflow=hidden;fillColor=none;top=0;left=0;bottom=0;right=0;pointerEvents=1;" vertex="1" parent="36">
                    <mxGeometry width="29" height="20" as="geometry">
                        <mxRectangle width="29" height="20" as="alternateBounds"/>
                    </mxGeometry>
                </mxCell>
                <mxCell id="38" value="0x56####..." style="shape=partialRectangle;html=1;whiteSpace=wrap;connectable=0;strokeColor=inherit;overflow=hidden;fillColor=none;top=0;left=0;bottom=0;right=0;pointerEvents=1;" vertex="1" parent="36">
                    <mxGeometry x="29" width="91" height="20" as="geometry">
                        <mxRectangle width="91" height="20" as="alternateBounds"/>
                    </mxGeometry>
                </mxCell>
                <mxCell id="42" value="..." style="shape=partialRectangle;html=1;whiteSpace=wrap;connectable=0;strokeColor=inherit;overflow=hidden;fillColor=none;top=0;left=0;bottom=0;right=0;pointerEvents=1;" vertex="1" parent="36">
                    <mxGeometry x="120" width="100" height="20" as="geometry">
                        <mxRectangle width="100" height="20" as="alternateBounds"/>
                    </mxGeometry>
                </mxCell>
                <mxCell id="43" value="名字" style="rounded=0;whiteSpace=wrap;html=1;" vertex="1" parent="1">
                    <mxGeometry x="280" y="140" width="20" height="80" as="geometry"/>
                </mxCell>
                <mxCell id="44" value="符号" style="rounded=0;whiteSpace=wrap;html=1;" vertex="1" parent="1">
                    <mxGeometry x="300" y="140" width="20" height="80" as="geometry"/>
                </mxCell>
                <mxCell id="45" value="精度" style="rounded=0;whiteSpace=wrap;html=1;" vertex="1" parent="1">
                    <mxGeometry x="320" y="140" width="20" height="80" as="geometry"/>
                </mxCell>
                <mxCell id="46" value="总发行量" style="rounded=0;whiteSpace=wrap;html=1;" vertex="1" parent="1">
                    <mxGeometry x="340" y="140" width="20" height="80" as="geometry"/>
                </mxCell>
                <mxCell id="47" value="名字" style="rounded=0;whiteSpace=wrap;html=1;" vertex="1" parent="1">
                    <mxGeometry x="280" y="340" width="20" height="80" as="geometry"/>
                </mxCell>
                <mxCell id="48" value="符号" style="rounded=0;whiteSpace=wrap;html=1;" vertex="1" parent="1">
                    <mxGeometry x="300" y="340" width="20" height="80" as="geometry"/>
                </mxCell>
                <mxCell id="49" value="总发行量" style="rounded=0;whiteSpace=wrap;html=1;" vertex="1" parent="1">
                    <mxGeometry x="320" y="340" width="20" height="80" as="geometry"/>
                </mxCell>
            </root>
        </mxGraphModel>
    </diagram>
    <diagram id="ZEaVMumR4fROYwrN9xvz" name="RWA">
        <mxGraphModel dx="789" dy="652" grid="1" gridSize="10" guides="1" tooltips="1" connect="1" arrows="1" fold="1" page="1" pageScale="1" pageWidth="827" pageHeight="1169" math="0" shadow="0">
            <root>
                <mxCell id="0"/>
                <mxCell id="1" parent="0"/>
                <mxCell id="p_ymE7xqMUBZhdE8GIzZ-28" value="1" style="ellipse;whiteSpace=wrap;html=1;aspect=fixed;fillColor=#f8cecc;strokeColor=#b85450;" vertex="1" parent="1">
                    <mxGeometry x="180" y="230" width="20" height="20" as="geometry"/>
                </mxCell>
                <mxCell id="p_ymE7xqMUBZhdE8GIzZ-23" value="" style="rounded=1;whiteSpace=wrap;html=1;fillColor=none;dashed=1;" vertex="1" parent="1">
                    <mxGeometry x="430" y="190" width="140" height="150" as="geometry"/>
                </mxCell>
                <mxCell id="p_ymE7xqMUBZhdE8GIzZ-11" style="edgeStyle=none;html=1;exitX=1;exitY=1;exitDx=0;exitDy=0;exitPerimeter=0;startArrow=classic;startFill=1;" edge="1" parent="1" source="p_ymE7xqMUBZhdE8GIzZ-5" target="p_ymE7xqMUBZhdE8GIzZ-8">
                    <mxGeometry relative="1" as="geometry"/>
                </mxCell>
                <mxCell id="p_ymE7xqMUBZhdE8GIzZ-5" value="" style="shape=cube;whiteSpace=wrap;html=1;boundedLbl=1;backgroundOutline=1;darkOpacity=0.05;darkOpacity2=0.1;size=10;" vertex="1" parent="1">
                    <mxGeometry x="440" y="200" width="40" height="50" as="geometry"/>
                </mxCell>
                <mxCell id="p_ymE7xqMUBZhdE8GIzZ-6" value="" style="shape=cube;whiteSpace=wrap;html=1;boundedLbl=1;backgroundOutline=1;darkOpacity=0.05;darkOpacity2=0.1;size=10;" vertex="1" parent="1">
                    <mxGeometry x="520" y="200" width="40" height="50" as="geometry"/>
                </mxCell>
                <mxCell id="p_ymE7xqMUBZhdE8GIzZ-7" value="" style="shape=cube;whiteSpace=wrap;html=1;boundedLbl=1;backgroundOutline=1;darkOpacity=0.05;darkOpacity2=0.1;size=10;" vertex="1" parent="1">
                    <mxGeometry x="440" y="280" width="40" height="50" as="geometry"/>
                </mxCell>
                <mxCell id="p_ymE7xqMUBZhdE8GIzZ-8" value="" style="shape=cube;whiteSpace=wrap;html=1;boundedLbl=1;backgroundOutline=1;darkOpacity=0.05;darkOpacity2=0.1;size=10;" vertex="1" parent="1">
                    <mxGeometry x="520" y="280" width="40" height="50" as="geometry"/>
                </mxCell>
                <mxCell id="p_ymE7xqMUBZhdE8GIzZ-9" style="edgeStyle=none;html=1;exitX=0;exitY=0;exitDx=40;exitDy=30;exitPerimeter=0;entryX=0;entryY=0;entryDx=0;entryDy=20;entryPerimeter=0;startArrow=classic;startFill=1;" edge="1" parent="1" source="p_ymE7xqMUBZhdE8GIzZ-5" target="p_ymE7xqMUBZhdE8GIzZ-6">
                    <mxGeometry relative="1" as="geometry"/>
                </mxCell>
                <mxCell id="p_ymE7xqMUBZhdE8GIzZ-10" style="edgeStyle=none;html=1;exitX=0;exitY=0;exitDx=40;exitDy=30;exitPerimeter=0;entryX=0;entryY=0;entryDx=0;entryDy=20;entryPerimeter=0;startArrow=classic;startFill=1;" edge="1" parent="1" source="p_ymE7xqMUBZhdE8GIzZ-7" target="p_ymE7xqMUBZhdE8GIzZ-8">
                    <mxGeometry relative="1" as="geometry"/>
                </mxCell>
                <mxCell id="p_ymE7xqMUBZhdE8GIzZ-12" style="edgeStyle=none;html=1;exitX=0;exitY=0;exitDx=40;exitDy=10;exitPerimeter=0;entryX=0;entryY=0;entryDx=5;entryDy=45;entryPerimeter=0;startArrow=classic;startFill=1;" edge="1" parent="1" source="p_ymE7xqMUBZhdE8GIzZ-7" target="p_ymE7xqMUBZhdE8GIzZ-6">
                    <mxGeometry relative="1" as="geometry"/>
                </mxCell>
                <mxCell id="p_ymE7xqMUBZhdE8GIzZ-13" style="edgeStyle=none;html=1;exitX=0;exitY=0;exitDx=15;exitDy=0;exitPerimeter=0;entryX=0;entryY=0;entryDx=25;entryDy=50;entryPerimeter=0;startArrow=classic;startFill=1;" edge="1" parent="1" source="p_ymE7xqMUBZhdE8GIzZ-7" target="p_ymE7xqMUBZhdE8GIzZ-5">
                    <mxGeometry relative="1" as="geometry"/>
                </mxCell>
                <mxCell id="p_ymE7xqMUBZhdE8GIzZ-14" style="edgeStyle=none;html=1;exitX=0;exitY=0;exitDx=15;exitDy=0;exitPerimeter=0;entryX=0;entryY=0;entryDx=25;entryDy=50;entryPerimeter=0;" edge="1" parent="1" source="p_ymE7xqMUBZhdE8GIzZ-8" target="p_ymE7xqMUBZhdE8GIzZ-6">
                    <mxGeometry relative="1" as="geometry"/>
                </mxCell>
                <mxCell id="p_ymE7xqMUBZhdE8GIzZ-15" value="Q链" style="text;html=1;align=center;verticalAlign=middle;resizable=0;points=[];autosize=1;strokeColor=none;fillColor=none;" vertex="1" parent="1">
                    <mxGeometry x="480" y="340" width="40" height="30" as="geometry"/>
                </mxCell>
                <mxCell id="p_ymE7xqMUBZhdE8GIzZ-16" value="" style="shape=cube;whiteSpace=wrap;html=1;boundedLbl=1;backgroundOutline=1;darkOpacity=0.05;darkOpacity2=0.1;size=10;" vertex="1" parent="1">
                    <mxGeometry x="280" y="240" width="40" height="50" as="geometry"/>
                </mxCell>
                <mxCell id="p_ymE7xqMUBZhdE8GIzZ-21" style="edgeStyle=none;html=1;exitX=0.855;exitY=0;exitDx=0;exitDy=3.19;exitPerimeter=0;" edge="1" parent="1" source="p_ymE7xqMUBZhdE8GIzZ-17">
                    <mxGeometry relative="1" as="geometry">
                        <mxPoint x="430" y="263" as="targetPoint"/>
                    </mxGeometry>
                </mxCell>
                <mxCell id="p_ymE7xqMUBZhdE8GIzZ-24" value="铸造" style="edgeLabel;html=1;align=center;verticalAlign=middle;resizable=0;points=[];" vertex="1" connectable="0" parent="p_ymE7xqMUBZhdE8GIzZ-21">
                    <mxGeometry x="0.0034" relative="1" as="geometry">
                        <mxPoint y="-13" as="offset"/>
                    </mxGeometry>
                </mxCell>
                <mxCell id="p_ymE7xqMUBZhdE8GIzZ-17" value="" style="shape=cylinder3;whiteSpace=wrap;html=1;boundedLbl=1;backgroundOutline=1;size=11;" vertex="1" parent="1">
                    <mxGeometry x="300" y="260" width="30" height="40" as="geometry"/>
                </mxCell>
                <mxCell id="p_ymE7xqMUBZhdE8GIzZ-18" value="" style="shape=actor;whiteSpace=wrap;html=1;" vertex="1" parent="1">
                    <mxGeometry x="120" y="240" width="40" height="40" as="geometry"/>
                </mxCell>
                <mxCell id="p_ymE7xqMUBZhdE8GIzZ-20" style="edgeStyle=none;html=1;exitX=0.9;exitY=0.5;exitDx=0;exitDy=0;exitPerimeter=0;entryX=0;entryY=0;entryDx=0;entryDy=20;entryPerimeter=0;" edge="1" parent="1" source="p_ymE7xqMUBZhdE8GIzZ-18" target="p_ymE7xqMUBZhdE8GIzZ-16">
                    <mxGeometry relative="1" as="geometry"/>
                </mxCell>
                <mxCell id="p_ymE7xqMUBZhdE8GIzZ-25" value="存入" style="edgeLabel;html=1;align=center;verticalAlign=middle;resizable=0;points=[];" vertex="1" connectable="0" parent="p_ymE7xqMUBZhdE8GIzZ-20">
                    <mxGeometry y="2" relative="1" as="geometry">
                        <mxPoint y="-10" as="offset"/>
                    </mxGeometry>
                </mxCell>
                <mxCell id="p_ymE7xqMUBZhdE8GIzZ-26" value="公司/机构" style="text;html=1;align=center;verticalAlign=middle;resizable=0;points=[];autosize=1;strokeColor=none;fillColor=none;" vertex="1" parent="1">
                    <mxGeometry x="265" y="338" width="70" height="30" as="geometry"/>
                </mxCell>
                <mxCell id="p_ymE7xqMUBZhdE8GIzZ-27" value="用户" style="text;html=1;align=center;verticalAlign=middle;resizable=0;points=[];autosize=1;strokeColor=none;fillColor=none;" vertex="1" parent="1">
                    <mxGeometry x="115" y="338" width="50" height="30" as="geometry"/>
                </mxCell>
                <mxCell id="p_ymE7xqMUBZhdE8GIzZ-30" value="2" style="ellipse;whiteSpace=wrap;html=1;aspect=fixed;fillColor=#f8cecc;strokeColor=#b85450;" vertex="1" parent="1">
                    <mxGeometry x="340" y="230" width="20" height="20" as="geometry"/>
                </mxCell>
                <mxCell id="p_ymE7xqMUBZhdE8GIzZ-31" value="2" style="ellipse;whiteSpace=wrap;html=1;aspect=fixed;fillColor=#f8cecc;strokeColor=#b85450;" vertex="1" parent="1">
                    <mxGeometry x="185" y="480" width="20" height="20" as="geometry"/>
                </mxCell>
                <mxCell id="p_ymE7xqMUBZhdE8GIzZ-32" value="" style="rounded=1;whiteSpace=wrap;html=1;fillColor=none;dashed=1;" vertex="1" parent="1">
                    <mxGeometry x="435" y="440" width="140" height="150" as="geometry"/>
                </mxCell>
                <mxCell id="p_ymE7xqMUBZhdE8GIzZ-33" style="edgeStyle=none;html=1;exitX=1;exitY=1;exitDx=0;exitDy=0;exitPerimeter=0;startArrow=classic;startFill=1;" edge="1" parent="1" source="p_ymE7xqMUBZhdE8GIzZ-34" target="p_ymE7xqMUBZhdE8GIzZ-37">
                    <mxGeometry relative="1" as="geometry"/>
                </mxCell>
                <mxCell id="p_ymE7xqMUBZhdE8GIzZ-34" value="" style="shape=cube;whiteSpace=wrap;html=1;boundedLbl=1;backgroundOutline=1;darkOpacity=0.05;darkOpacity2=0.1;size=10;" vertex="1" parent="1">
                    <mxGeometry x="445" y="450" width="40" height="50" as="geometry"/>
                </mxCell>
                <mxCell id="p_ymE7xqMUBZhdE8GIzZ-35" value="" style="shape=cube;whiteSpace=wrap;html=1;boundedLbl=1;backgroundOutline=1;darkOpacity=0.05;darkOpacity2=0.1;size=10;" vertex="1" parent="1">
                    <mxGeometry x="525" y="450" width="40" height="50" as="geometry"/>
                </mxCell>
                <mxCell id="p_ymE7xqMUBZhdE8GIzZ-36" value="" style="shape=cube;whiteSpace=wrap;html=1;boundedLbl=1;backgroundOutline=1;darkOpacity=0.05;darkOpacity2=0.1;size=10;" vertex="1" parent="1">
                    <mxGeometry x="445" y="530" width="40" height="50" as="geometry"/>
                </mxCell>
                <mxCell id="p_ymE7xqMUBZhdE8GIzZ-37" value="" style="shape=cube;whiteSpace=wrap;html=1;boundedLbl=1;backgroundOutline=1;darkOpacity=0.05;darkOpacity2=0.1;size=10;" vertex="1" parent="1">
                    <mxGeometry x="525" y="530" width="40" height="50" as="geometry"/>
                </mxCell>
                <mxCell id="p_ymE7xqMUBZhdE8GIzZ-38" style="edgeStyle=none;html=1;exitX=0;exitY=0;exitDx=40;exitDy=30;exitPerimeter=0;entryX=0;entryY=0;entryDx=0;entryDy=20;entryPerimeter=0;startArrow=classic;startFill=1;" edge="1" parent="1" source="p_ymE7xqMUBZhdE8GIzZ-34" target="p_ymE7xqMUBZhdE8GIzZ-35">
                    <mxGeometry relative="1" as="geometry"/>
                </mxCell>
                <mxCell id="p_ymE7xqMUBZhdE8GIzZ-39" style="edgeStyle=none;html=1;exitX=0;exitY=0;exitDx=40;exitDy=30;exitPerimeter=0;entryX=0;entryY=0;entryDx=0;entryDy=20;entryPerimeter=0;startArrow=classic;startFill=1;" edge="1" parent="1" source="p_ymE7xqMUBZhdE8GIzZ-36" target="p_ymE7xqMUBZhdE8GIzZ-37">
                    <mxGeometry relative="1" as="geometry"/>
                </mxCell>
                <mxCell id="p_ymE7xqMUBZhdE8GIzZ-40" style="edgeStyle=none;html=1;exitX=0;exitY=0;exitDx=40;exitDy=10;exitPerimeter=0;entryX=0;entryY=0;entryDx=5;entryDy=45;entryPerimeter=0;startArrow=classic;startFill=1;" edge="1" parent="1" source="p_ymE7xqMUBZhdE8GIzZ-36" target="p_ymE7xqMUBZhdE8GIzZ-35">
                    <mxGeometry relative="1" as="geometry"/>
                </mxCell>
                <mxCell id="p_ymE7xqMUBZhdE8GIzZ-41" style="edgeStyle=none;html=1;exitX=0;exitY=0;exitDx=15;exitDy=0;exitPerimeter=0;entryX=0;entryY=0;entryDx=25;entryDy=50;entryPerimeter=0;startArrow=classic;startFill=1;" edge="1" parent="1" source="p_ymE7xqMUBZhdE8GIzZ-36" target="p_ymE7xqMUBZhdE8GIzZ-34">
                    <mxGeometry relative="1" as="geometry"/>
                </mxCell>
                <mxCell id="p_ymE7xqMUBZhdE8GIzZ-42" style="edgeStyle=none;html=1;exitX=0;exitY=0;exitDx=15;exitDy=0;exitPerimeter=0;entryX=0;entryY=0;entryDx=25;entryDy=50;entryPerimeter=0;" edge="1" parent="1" source="p_ymE7xqMUBZhdE8GIzZ-37" target="p_ymE7xqMUBZhdE8GIzZ-35">
                    <mxGeometry relative="1" as="geometry"/>
                </mxCell>
                <mxCell id="p_ymE7xqMUBZhdE8GIzZ-43" value="Q链" style="text;html=1;align=center;verticalAlign=middle;resizable=0;points=[];autosize=1;strokeColor=none;fillColor=none;" vertex="1" parent="1">
                    <mxGeometry x="485" y="590" width="40" height="30" as="geometry"/>
                </mxCell>
                <mxCell id="p_ymE7xqMUBZhdE8GIzZ-44" value="" style="shape=cube;whiteSpace=wrap;html=1;boundedLbl=1;backgroundOutline=1;darkOpacity=0.05;darkOpacity2=0.1;size=10;" vertex="1" parent="1">
                    <mxGeometry x="285" y="490" width="40" height="50" as="geometry"/>
                </mxCell>
                <mxCell id="p_ymE7xqMUBZhdE8GIzZ-45" style="edgeStyle=none;html=1;exitX=0.855;exitY=0;exitDx=0;exitDy=3.19;exitPerimeter=0;endArrow=none;endFill=0;startArrow=classic;startFill=1;" edge="1" parent="1" source="p_ymE7xqMUBZhdE8GIzZ-47">
                    <mxGeometry relative="1" as="geometry">
                        <mxPoint x="435" y="513" as="targetPoint"/>
                    </mxGeometry>
                </mxCell>
                <mxCell id="p_ymE7xqMUBZhdE8GIzZ-46" value="销毁" style="edgeLabel;html=1;align=center;verticalAlign=middle;resizable=0;points=[];" vertex="1" connectable="0" parent="p_ymE7xqMUBZhdE8GIzZ-45">
                    <mxGeometry x="0.0034" relative="1" as="geometry">
                        <mxPoint y="-13" as="offset"/>
                    </mxGeometry>
                </mxCell>
                <mxCell id="p_ymE7xqMUBZhdE8GIzZ-47" value="" style="shape=cylinder3;whiteSpace=wrap;html=1;boundedLbl=1;backgroundOutline=1;size=11;" vertex="1" parent="1">
                    <mxGeometry x="305" y="510" width="30" height="40" as="geometry"/>
                </mxCell>
                <mxCell id="p_ymE7xqMUBZhdE8GIzZ-48" value="" style="shape=actor;whiteSpace=wrap;html=1;" vertex="1" parent="1">
                    <mxGeometry x="125" y="490" width="40" height="40" as="geometry"/>
                </mxCell>
                <mxCell id="p_ymE7xqMUBZhdE8GIzZ-49" style="edgeStyle=none;html=1;exitX=0.9;exitY=0.5;exitDx=0;exitDy=0;exitPerimeter=0;entryX=0;entryY=0;entryDx=0;entryDy=20;entryPerimeter=0;startArrow=classic;startFill=1;endArrow=none;endFill=0;" edge="1" parent="1" source="p_ymE7xqMUBZhdE8GIzZ-48" target="p_ymE7xqMUBZhdE8GIzZ-44">
                    <mxGeometry relative="1" as="geometry"/>
                </mxCell>
                <mxCell id="p_ymE7xqMUBZhdE8GIzZ-50" value="取出" style="edgeLabel;html=1;align=center;verticalAlign=middle;resizable=0;points=[];" vertex="1" connectable="0" parent="p_ymE7xqMUBZhdE8GIzZ-49">
                    <mxGeometry y="2" relative="1" as="geometry">
                        <mxPoint y="-10" as="offset"/>
                    </mxGeometry>
                </mxCell>
                <mxCell id="p_ymE7xqMUBZhdE8GIzZ-51" value="公司/机构" style="text;html=1;align=center;verticalAlign=middle;resizable=0;points=[];autosize=1;strokeColor=none;fillColor=none;" vertex="1" parent="1">
                    <mxGeometry x="270" y="588" width="70" height="30" as="geometry"/>
                </mxCell>
                <mxCell id="p_ymE7xqMUBZhdE8GIzZ-52" value="用户" style="text;html=1;align=center;verticalAlign=middle;resizable=0;points=[];autosize=1;strokeColor=none;fillColor=none;" vertex="1" parent="1">
                    <mxGeometry x="120" y="588" width="50" height="30" as="geometry"/>
                </mxCell>
                <mxCell id="p_ymE7xqMUBZhdE8GIzZ-53" value="1" style="ellipse;whiteSpace=wrap;html=1;aspect=fixed;fillColor=#f8cecc;strokeColor=#b85450;" vertex="1" parent="1">
                    <mxGeometry x="345" y="480" width="20" height="20" as="geometry"/>
                </mxCell>
            </root>
        </mxGraphModel>
    </diagram>
</mxfile>